<?xml version="1.0" encoding="utf-8"?>
<!-- Generator: Adobe Illustrator 22.1.0, SVG Export Plug-In . SVG Version: 6.00 Build 0)  -->
<svg version="1.1" id="Layer_1" xmlns="http://www.w3.org/2000/svg" xmlns:xlink="http://www.w3.org/1999/xlink" x="0px" y="0px"
	 viewBox="0 0 22 30" style="enable-background:new 0 0 22 30;" xml:space="preserve">
<style type="text/css">
	.st0{fill:#9498A7;}
</style>
<title>Settings</title>
<g>
	<path class="st0" d="M11,16c-1.4,0-2.5,1.1-2.5,2.5c0,0.8,0.4,1.6,1.1,2.1l-0.4,3.9c0,0.1,0,0.3,0.1,0.4C9.4,24.9,9.5,25,9.7,25
		h2.7c0.1,0,0.3-0.1,0.4-0.2s0.1-0.2,0.1-0.4l-0.4-3.9c0.7-0.5,1.1-1.2,1.1-2.1c0,0,0,0,0,0C13.5,17.1,12.4,16,11,16z M11.7,19.8
		c-0.2,0.1-0.3,0.3-0.3,0.5l0.4,3.7h-1.5l0.4-3.7c0-0.2-0.1-0.4-0.3-0.5c-0.5-0.3-0.8-0.8-0.8-1.3c0-0.8,0.7-1.5,1.5-1.5
		c0.8,0,1.5,0.7,1.5,1.5C12.5,19.1,12.2,19.6,11.7,19.8z"/>
	<path class="st0" d="M21.5,11H20V9c0-5-4-9-9-9C6,0,2,4,2,9v0.5C2,9.8,2.2,10,2.5,10h2C4.8,10,5,9.8,5,9.5V9c0-3.3,2.7-6,6-6
		s6,2.7,6,6v2H0.5C0.2,11,0,11.2,0,11.5V28c0,1.1,0.9,2,2,2h18c1.1,0,2-0.9,2-2V11.5C22,11.2,21.8,11,21.5,11z M11,2
		C7.1,2,4,5.1,4,9H3c0-4.4,3.6-8,8-8s8,3.6,8,8v2h-1V9C18,5.1,14.9,2,11,2z M21,28c0,0.6-0.4,1-1,1H2c-0.6,0-1-0.4-1-1V12h16.5h2H21
		V28z"/>
</g>
</svg>
