<?xml version="1.0" encoding="utf-8"?>
<!-- Generator: Adobe Illustrator 22.1.0, SVG Export Plug-In . SVG Version: 6.00 Build 0)  -->
<svg version="1.1" id="Layer_1" xmlns="http://www.w3.org/2000/svg" xmlns:xlink="http://www.w3.org/1999/xlink" x="0px" y="0px"
	 viewBox="0 0 30 30" style="enable-background:new 0 0 30 30;" xml:space="preserve">
<style type="text/css">
	.st0{fill:#9498A6;}
</style>
<title>Avatar</title>
<g>
	<circle id="XMLID_2082_" class="st0" cx="15" cy="9" r="6.5"/>
	<path class="st0" d="M25.1,20.2c-2.3-1.2-5.9-2.8-9.9-2.8c-0.1,0-0.1,0-0.2,0c-0.1,0-0.1,0-0.2,0c-4,0-7.6,1.5-9.9,2.8
		c-1.6,0.9-2.6,2.6-2.6,4.5V26c0,0.8,0.7,1.5,1.5,1.5h0.8h20.7h0.8c0.8,0,1.5-0.7,1.5-1.5v-1.3C27.7,22.8,26.7,21.1,25.1,20.2z"/>
</g>
</svg>
