<?xml version="1.0" encoding="utf-8"?>
<!-- Generator: Adobe Illustrator 22.1.0, SVG Export Plug-In . SVG Version: 6.00 Build 0)  -->
<svg version="1.1" id="Layer_1" xmlns="http://www.w3.org/2000/svg" xmlns:xlink="http://www.w3.org/1999/xlink" x="0px" y="0px"
	 viewBox="0 0 26 26" style="enable-background:new 0 0 26 26;" xml:space="preserve">
<style type="text/css">
	.st0{fill:#9498A7;}
</style>
<title>Courses</title>
<path class="st0" d="M19.3,13.5l6.1-6.1C25.8,7,26,6.5,26,5.9c0-0.6-0.2-1.2-0.7-1.6l-3.6-3.6c-0.4-0.4-1-0.7-1.6-0.6
	c-0.6,0-1.2,0.2-1.6,0.6l-6.1,6.1L5.9,0.1C5.7,0,5.3,0,5.1,0.1l-5,5C0,5.3,0,5.7,0.1,5.9l6.6,6.6l-4.1,4.2c0,0,0,0,0,0
	c0,0.1-0.1,0.1-0.1,0.2c0,0,0,0,0,0L1.3,21c0,0,0,0.1,0,0.1L0,25.4c-0.1,0.2,0,0.4,0.1,0.5C0.2,25.9,0.4,26,0.5,26c0,0,0.1,0,0.1,0
	L5,24.9c0,0,0,0,0.1,0L8.6,24c0,0,0,0,0,0c0.1,0,0.1-0.1,0.2-0.1c0,0,0,0,0,0l0,0c0,0,0,0,0,0l4.7-4.6l6.6,6.6
	c0.1,0.1,0.2,0.1,0.4,0.1s0.3,0,0.4-0.1l5-5c0.2-0.2,0.2-0.5,0-0.7L19.3,13.5z M9,22.3V21c0-0.2-0.1-0.4-0.3-0.5l-1.8-0.7L19,7.7
	l2.3,2.3l-3.1,3.1c0,0,0,0,0,0c0,0,0,0,0,0L9,22.3z M5.1,23.9l-2.8-2.8l1.1-3.6h1.7l0.4,2.6c0,0,0,0,0,0c0,0.1,0,0.1,0.1,0.2
	c0,0,0,0,0,0.1c0,0,0,0,0,0c0,0,0.1,0.1,0.2,0.1L8,21.3v1.8L5.1,23.9z M7.7,13c0.1,0,0.1-0.1,0.2-0.1c0,0,0.1-0.1,0.1-0.2l4.8-4.8
	c0,0,0.1,0,0.1-0.1c0,0,0-0.1,0.1-0.1L16,4.7L18.3,7l-12,12l-0.3-2c0-0.2-0.2-0.4-0.5-0.4H4.2L7.7,13z M19.2,1.4
	C19.5,1.1,19.8,1,20.1,1c0.3,0,0.7,0.1,0.9,0.4l3.6,3.6C24.9,5.2,25,5.5,25,5.9c0,0.3-0.1,0.7-0.4,0.9l-2.6,2.6l-5.4-5.4L19.2,1.4z
	 M5.7,10l1.1-1.1C7,8.7,7,8.3,6.9,8.1S6.3,8,6.1,8.1L5,9.3L3.2,7.5l1.1-1.1c0.2-0.2,0.2-0.5,0-0.7s-0.5-0.2-0.7,0L2.5,6.8L1.2,5.5
	l4.3-4.3l6.3,6.3l-4.3,4.3L5.7,10z M2,22.2l1.9,1.9l-2.7,0.7L2,22.2z M20.5,24.8l-1.3-1.3l1.1-1.1c0.2-0.2,0.2-0.5,0-0.7
	s-0.5-0.2-0.7,0l-1.1,1.1L16.7,21l1.1-1.1c0.2-0.2,0.2-0.5,0-0.7s-0.5-0.2-0.7,0L16,20.3l-1.8-1.8l4.3-4.3l6.3,6.3L20.5,24.8z"/>
</svg>
