<?xml version="1.0" encoding="utf-8"?>
<!-- Generator: Adobe Illustrator 22.1.0, SVG Export Plug-In . SVG Version: 6.00 Build 0)  -->
<svg version="1.1" id="Layer_1" xmlns="http://www.w3.org/2000/svg" xmlns:xlink="http://www.w3.org/1999/xlink" x="0px" y="0px"
	 viewBox="0 0 24 24" style="enable-background:new 0 0 24 24;" xml:space="preserve">
<style type="text/css">
	.st0{fill:#9498A7;}
</style>
<path class="st0" d="M12.8,7l4.2,4.2l-8.5,8.5H4.3v-4.2L12.8,7z M8,18.4l0.9-0.9l-2.4-2.4L5.6,16v1.1h1.3v1.3H8z M13.3,9
	c0-0.1-0.1-0.2-0.2-0.2c-0.1,0-0.1,0-0.2,0.1l-5.5,5.5c0,0-0.1,0.1-0.1,0.2c0,0.1,0.1,0.2,0.2,0.2c0.1,0,0.1,0,0.2-0.1l5.5-5.5
	C13.3,9.1,13.3,9,13.3,9z M19.7,8c0,0.4-0.1,0.7-0.4,0.9l-1.7,1.7l-4.2-4.2l1.7-1.7c0.2-0.3,0.6-0.4,0.9-0.4c0.4,0,0.7,0.1,0.9,0.4
	L19.4,7C19.6,7.3,19.7,7.6,19.7,8z"/>
</svg>
