<?xml version="1.0" encoding="utf-8"?>
<!-- Generator: Adobe Illustrator 22.1.0, SVG Export Plug-In . SVG Version: 6.00 Build 0)  -->
<svg version="1.1" id="Layer_1" xmlns="http://www.w3.org/2000/svg" xmlns:xlink="http://www.w3.org/1999/xlink" x="0px" y="0px"
	 viewBox="0 0 30 26" style="enable-background:new 0 0 30 26;" xml:space="preserve">
<style type="text/css">
	.st0{fill:#9498A7;}
</style>
<title>Home</title>
<path class="st0" d="M29.8,12.1L26,9V2.5C26,2.2,25.8,2,25.5,2h-4C21.2,2,21,2.2,21,2.5v2.3l-5.7-4.7c-0.2-0.2-0.5-0.2-0.6,0
	l-14.5,12c-0.2,0.2-0.2,0.5-0.1,0.7l2,2.5c0.1,0.1,0.2,0.2,0.3,0.2c0.1,0,0.3,0,0.4-0.1l1.2-1v11.1C4,25.8,4.2,26,4.5,26h6
	c0.3,0,0.5-0.2,0.5-0.5V15h8v10.5c0,0.3,0.2,0.5,0.5,0.5h6c0.3,0,0.5-0.2,0.5-0.5V14.4l1.2,1c0.1,0.1,0.2,0.1,0.3,0.1c0,0,0,0,0,0
	c0.1,0,0.3-0.1,0.3-0.2l2-2.5C30.1,12.6,30,12.3,29.8,12.1z M22,3h3v5.1l-3-2.5V3z M25,25h-5V14.5c0-0.3-0.2-0.5-0.5-0.5h-9
	c-0.3,0-0.5,0.2-0.5,0.5V25H5V13.6L5.7,13l0.1-0.1c0,0,0,0,0,0L15,5.2l10,8.4V25z M27.4,14.3L15.3,4.1C15.2,4,15.1,4,15,4
	s-0.2,0-0.3,0.1l-9.5,8c0,0,0,0,0,0l-1,0.8c0,0,0,0,0,0l-1.6,1.3l-1.4-1.7L15,1.1l13.8,11.4L27.4,14.3z"/>
</svg>
