<?xml version="1.0" encoding="utf-8"?>
<!-- Generator: Adobe Illustrator 22.1.0, SVG Export Plug-In . SVG Version: 6.00 Build 0)  -->
<svg version="1.1" id="Layer_1" xmlns="http://www.w3.org/2000/svg" xmlns:xlink="http://www.w3.org/1999/xlink" x="0px" y="0px"
	 viewBox="0 0 30 24" style="enable-background:new 0 0 30 24;" xml:space="preserve">
<style type="text/css">
	.st0{fill:#9498A7;}
</style>
<title>Messages</title>
<path class="st0" d="M29.8,13.4L23.1,1c-0.2-0.4-0.6-0.8-1.1-0.9c0,0,0,0,0,0c-0.1,0-0.1,0-0.2,0C21.4,0,20.9,0,20.4,0.2L1,10.7
	c-0.5,0.3-0.8,0.7-1,1.2c0,0,0,0,0,0.1c0,0,0,0,0,0.1c-0.1,0.4,0,0.9,0.2,1.3L5.4,23H3c-0.3,0-0.5,0.2-0.5,0.5S2.7,24,3,24h23.5
	c0.3,0,0.5-0.2,0.5-0.5S26.8,23,26.5,23H16.2L29,16.1C29.9,15.6,30.3,14.4,29.8,13.4z M20.9,1.1c0,0,0.1,0,0.1,0l-5.3,12.5
	c-0.2,0.4-0.5,0.6-0.9,0.5L1.4,11.7c0.1,0,0.1-0.1,0.2-0.1L20.9,1.1z M28.5,15.2L14.1,23H6.5L1.1,12.9c0-0.1-0.1-0.2-0.1-0.2
	l13.6,2.5c0.1,0,0.2,0,0.3,0c0.7,0,1.4-0.4,1.7-1.1L22,1.3c0.1,0.1,0.1,0.1,0.2,0.2l6.6,12.4C29.1,14.4,28.9,15,28.5,15.2z"/>
</svg>
