<?xml version="1.0" encoding="utf-8"?>
<!-- Generator: Adobe Illustrator 22.1.0, SVG Export Plug-In . SVG Version: 6.00 Build 0)  -->
<svg version="1.1" id="Layer_1" xmlns="http://www.w3.org/2000/svg" xmlns:xlink="http://www.w3.org/1999/xlink" x="0px" y="0px"
	 viewBox="0 0 26 26" style="enable-background:new 0 0 26 26;" xml:space="preserve">
<style type="text/css">
	.st0{fill:#9498A7;}
</style>
<title>Messages</title>
<g>
	<path class="st0" d="M7,10c-0.6,0-1,0.4-1,1s0.4,1,1,1s1-0.4,1-1S7.6,10,7,10z M7,11C7,11,7,11,7,11v-0.5V11z"/>
	<path class="st0" d="M13,10c-0.6,0-1,0.4-1,1s0.4,1,1,1s1-0.4,1-1S13.6,10,13,10z M13,11C13,11,13,11,13,11v-0.5V11z"/>
	<path class="st0" d="M19,10c-0.6,0-1,0.4-1,1s0.4,1,1,1s1-0.4,1-1S19.6,10,19,10z M19,11C19,11,19,11,19,11v-0.5V11z"/>
	<path class="st0" d="M24,0H2C0.9,0,0,0.9,0,2v23.5c0,0.2,0.1,0.4,0.3,0.5c0.1,0,0.1,0,0.2,0c0.1,0,0.3-0.1,0.4-0.1L6.7,20H24
		c1.1,0,2-0.9,2-2V2C26,0.9,25.1,0,24,0z M25,18c0,0.6-0.4,1-1,1H6.5c-0.1,0-0.3,0.1-0.4,0.1L1,24.3V2c0-0.6,0.4-1,1-1h22
		c0.6,0,1,0.4,1,1V18z"/>
</g>
</svg>
