<?xml version="1.0" encoding="utf-8"?>
<!-- Generator: Adobe Illustrator 22.1.0, SVG Export Plug-In . SVG Version: 6.00 Build 0)  -->
<svg version="1.1" id="Layer_1" xmlns="http://www.w3.org/2000/svg" xmlns:xlink="http://www.w3.org/1999/xlink" x="0px" y="0px"
	 viewBox="0 0 26 26" style="enable-background:new 0 0 26 26;" xml:space="preserve">
<style type="text/css">
	.st0{fill:#9498A7;}
</style>
<title>Notifications</title>
<g>
	<path class="st0" d="M26,14.5c0,0,0-0.1,0-0.1c0,0,0-0.1,0-0.1c0,0,0,0,0,0L24,11V2c0-1.1-0.9-2-2-2H4C2.9,0,2,0.9,2,2v9l-1.9,3.2
		c0,0,0,0,0,0c0,0,0,0.1,0,0.1c0,0,0,0.1,0,0.1c0,0,0,0,0,0V24c0,1.1,0.9,2,2,2h22c1.1,0,2-0.9,2-2L26,14.5C26,14.5,26,14.5,26,14.5
		z M24.6,14H24v-1L24.6,14z M4,1h18c0.6,0,1,0.4,1,1v12h-1.5c-1.4,0-2.5,1.1-2.5,2.5c0,0.8-0.7,1.5-1.5,1.5h-9C7.7,18,7,17.3,7,16.5
		C7,15.1,5.9,14,4.5,14H3V2C3,1.4,3.4,1,4,1z M2,14H1.4L2,13V14z M24,25H2c-0.6,0-1-0.4-1-1v-9h3.5C5.3,15,6,15.7,6,16.5
		C6,17.9,7.1,19,8.5,19h9c1.4,0,2.5-1.1,2.5-2.5c0-0.8,0.7-1.5,1.5-1.5H25v9C25,24.6,24.6,25,24,25z"/>
	<path class="st0" d="M13,12c0.3,0,0.5-0.2,0.5-0.5v-6C13.5,5.2,13.3,5,13,5s-0.5,0.2-0.5,0.5v6C12.5,11.8,12.7,12,13,12z"/>
	<path class="st0" d="M9.9,15.6c0.3,0.3,0.7,0.4,1.1,0.4H15c0.4,0,0.8-0.2,1.1-0.5l2.9-3.4c0.2-0.3,0.4-0.6,0.4-1V7.4
		c0-0.4-0.2-0.8-0.4-1.1l-2.9-2.9C15.9,3.2,15.5,3,15.1,3h-4.2c-0.4,0-0.8,0.2-1.1,0.4L6.9,6.4C6.7,6.6,6.5,7,6.5,7.4c0,0,0,0,0,0
		v4.2c0,0.4,0.2,0.8,0.4,1.1L9.9,15.6z M7.5,7.4c0-0.1,0.1-0.3,0.1-0.3l2.9-2.9C10.7,4.1,10.8,4,10.9,4h4.2c0.1,0,0.3,0.1,0.3,0.1
		l2.9,2.9c0.1,0.1,0.1,0.2,0.1,0.3v3.7c0,0.1,0,0.2-0.1,0.3l-2.9,3.4C15.3,14.9,15.2,15,15,15h-4.1c-0.1,0-0.3-0.1-0.3-0.1l-2.9-2.9
		c-0.1-0.1-0.1-0.2-0.1-0.3V7.4z"/>
	<circle class="st0" cx="13" cy="13.5" r="1"/>
</g>
</svg>
