<?xml version="1.0" encoding="utf-8"?>
<!-- Generator: Adobe Illustrator 22.1.0, SVG Export Plug-In . SVG Version: 6.00 Build 0)  -->
<svg version="1.1" id="Layer_1" xmlns="http://www.w3.org/2000/svg" xmlns:xlink="http://www.w3.org/1999/xlink" x="0px" y="0px"
	 viewBox="0 0 30 30" style="enable-background:new 0 0 30 30;" xml:space="preserve">
<style type="text/css">
	.st0{fill:#9498A7;}
</style>
<g>
	<path class="st0" d="M13,14c3.9,0,7-3.1,7-7s-3.1-7-7-7C9.1,0,6,3.1,6,7S9.1,14,13,14z M13,1c3.3,0,6,2.7,6,6s-2.7,6-6,6
		s-6-2.7-6-6S9.7,1,13,1z"/>
	<path class="st0" d="M28.7,19c-1.2,0-2.4,0.2-3.6,0.6c-0.5-0.8-1.2-1.4-2-1.8C20,16.1,16.5,15.1,13,15c-3.5,0.1-7,1.1-10.1,2.8
		c-1.8,1-2.9,2.9-2.9,4.9V24c0,1.1,0.9,2,2,2h17c0,0,0,0.1,0,0.1c0,0.7,0.2,1.3,0.5,1.8c-0.2,0.4-0.4,0.9-0.5,1.4
		c-0.1,0.3,0.1,0.5,0.3,0.6c0,0,0.1,0,0.1,0c0.2,0,0.4-0.1,0.5-0.4c0.1-0.3,0.2-0.5,0.3-0.8c0.7,0.7,1.6,1.1,2.7,1.1
		c3.9,0,7.1-5.3,7.1-9.7C30,19.6,29.4,19,28.7,19z M2,25c-0.6,0-1-0.4-1-1v-1.3c0-1.7,0.9-3.2,2.4-4C6.3,17,9.6,16.1,13,16
		c3.4,0.1,6.7,1,9.7,2.7c0.6,0.3,1.1,0.8,1.5,1.3c-2.4,1.1-4.4,2.9-5,5H2z M22.9,29c-0.9,0-1.7-0.5-2.2-1.1c1.3-2.7,3.4-4.1,6.5-5.4
		c0.3-0.1,0.4-0.4,0.3-0.7c-0.1-0.3-0.4-0.4-0.7-0.3c-3,1.3-5.2,2.7-6.7,5.2c-0.1-0.2-0.1-0.5-0.1-0.7c0-2.3,2.3-4.3,5-5.3
		c0,0,0.1,0,0.1,0c0,0,0,0,0,0c1.2-0.4,2.4-0.7,3.6-0.7c0.2,0,0.3,0.1,0.3,0.3C29,24.2,26.2,29,22.9,29z"/>
</g>
</svg>
