<?xml version="1.0" encoding="utf-8"?>
<!-- Generator: Adobe Illustrator 22.1.0, SVG Export Plug-In . SVG Version: 6.00 Build 0)  -->
<svg version="1.1" id="Layer_1" xmlns="http://www.w3.org/2000/svg" xmlns:xlink="http://www.w3.org/1999/xlink" x="0px" y="0px"
	 viewBox="0 0 20 30" style="enable-background:new 0 0 20 30;" xml:space="preserve">
<style type="text/css">
	.st0{fill:#9498A7;}
</style>
<title>Rewards</title>
<g id="Layer_2_1_">
	<g id="Layer_1-2">
		<g id="_Group_">
			<g id="_Path_">
				<path class="st0" d="M10,18c-5,0-9-4-9-9s4-9,9-9c5,0,9,4,9,9S15,18,10,18z M10,1C5.6,1,2,4.6,2,9s3.6,8,8,8s8-3.6,8-8
					S14.4,1,10,1z"/>
			</g>
		</g>
		<g>
			<path class="st0" d="M12.5,30c0,0-0.1,0-0.1,0c-0.2-0.1-0.4-0.2-0.4-0.4c-0.3-4.1-1.2-10.5-2.4-11.7c-0.2-0.2-0.2-0.5,0-0.7
				c0.2-0.2,0.5-0.2,0.7,0c1.5,1.5,2.2,7.8,2.5,10.8l1.7-2.7c0.1-0.2,0.4-0.3,0.6-0.2c1.3,0.6,2.6,1.4,3.7,2.3
				C18.5,23.1,16,14.7,16,14.6c-0.1-0.3,0.1-0.5,0.3-0.6c0.3-0.1,0.5,0.1,0.6,0.3c0.1,0.4,3,10.3,3,14.1c0,0.2-0.1,0.4-0.3,0.5
				c-0.2,0.1-0.4,0-0.5-0.1c-1.2-1.1-2.5-2-4-2.7l-2.3,3.6C12.8,29.9,12.7,30,12.5,30z"/>
		</g>
		<g>
			<path class="st0" d="M7.5,30c-0.2,0-0.3-0.1-0.4-0.2l-2.3-3.6c-1.4,0.7-2.8,1.6-4,2.7C0.7,29,0.5,29,0.3,29
				C0.1,28.9,0,28.7,0,28.5c0-3.8,2.9-13.7,3-14.1c0.1-0.3,0.4-0.4,0.6-0.3c0.3,0.1,0.4,0.4,0.3,0.6c0,0.1-2.5,8.5-2.9,12.7
				c1.1-0.9,2.4-1.7,3.7-2.3c0.2-0.1,0.5,0,0.6,0.2L7.1,28c0.3-3,1.1-9.4,2.5-10.8c0.2-0.2,0.5-0.2,0.7,0c0.2,0.2,0.2,0.5,0,0.7
				C9.2,19,8.3,25.5,8,29.5c0,0.2-0.2,0.4-0.4,0.4C7.6,30,7.5,30,7.5,30z"/>
		</g>
		<g>
			<path class="st0" d="M13.5,15c-0.1,0-0.2,0-0.3-0.1L10,12.8l-2.8,2.1C7,15,6.8,15,6.6,14.9c-0.2-0.1-0.3-0.3-0.2-0.5l0.8-3.8
				L4.2,7.9C4,7.7,4,7.5,4,7.3C4.1,7.2,4.2,7,4.4,7l3.9-0.4l1.2-3.2c0.1-0.4,0.8-0.4,0.9,0l1.2,3.2L15.6,7c0.2,0,0.4,0.2,0.4,0.3
				s0,0.4-0.1,0.5l-3,2.7l1.2,3.8c0.1,0.2,0,0.4-0.2,0.5C13.7,15,13.6,15,13.5,15z M10,11.7c0.1,0,0.2,0,0.3,0.1l2.3,1.5l-0.9-2.8
				c-0.1-0.2,0-0.4,0.1-0.5l2.4-2.1l-3.1-0.3c-0.2,0-0.3-0.1-0.4-0.3L10,5L9.2,7.2C9.1,7.4,9,7.5,8.8,7.5L5.7,7.9L8.1,10
				c0.1,0.1,0.2,0.3,0.2,0.5l-0.6,2.8l2-1.5C9.8,11.8,9.9,11.7,10,11.7z"/>
		</g>
	</g>
</g>
</svg>
