<?xml version="1.0" encoding="utf-8"?>
<!-- Generator: Adobe Illustrator 22.1.0, SVG Export Plug-In . SVG Version: 6.00 Build 0)  -->
<svg version="1.1" id="Layer_1" xmlns="http://www.w3.org/2000/svg" xmlns:xlink="http://www.w3.org/1999/xlink" x="0px" y="0px"
	 viewBox="0 0 29 30" style="enable-background:new 0 0 29 30;" xml:space="preserve">
<style type="text/css">
	.st0{fill:#9498A7;}
</style>
<title>Settings</title>
<g id="Layer_2_1_">
	<g id="Layer_1-2">
		<g>
			<path class="st0" d="M17.4,30h-5.8c-0.2,0-0.5-0.2-0.5-0.4l-0.7-4.2c-1-0.4-2-1-2.9-1.6l-4,1.4c-0.2,0.1-0.5,0-0.6-0.2l-2.9-5
				c-0.1-0.2-0.1-0.5,0.1-0.6l3.3-2.7c-0.1-0.5-0.1-1.1-0.2-1.6c0-0.6,0.1-1.1,0.2-1.7l-3.3-2.7C0,10.5-0.1,10.2,0.1,10L3,5
				c0.1-0.2,0.4-0.3,0.6-0.2l4,1.4C8.4,5.5,9.4,5,10.4,4.6l0.7-4.2c0-0.2,0.2-0.4,0.5-0.4h5.8c0.2,0,0.5,0.2,0.5,0.4l0.7,4.2
				c1,0.4,2,1,2.8,1.6l4-1.4c0.2-0.1,0.5,0,0.6,0.2l2.9,5c0.1,0.2,0.1,0.5-0.1,0.6l-3.2,2.7c0.1,0.5,0.1,1.1,0.1,1.6c0,0,0,0,0,0
				c0,0.5,0,1.1-0.1,1.6l3.2,2.7c0.2,0.2,0.2,0.4,0.1,0.6l-2.9,5c-0.1,0.2-0.4,0.3-0.6,0.2l-4-1.4c-0.9,0.7-1.8,1.2-2.8,1.6
				l-0.7,4.2C17.9,29.8,17.7,30,17.4,30z M12,29h5l0.7-4c0-0.2,0.2-0.3,0.3-0.4c1.1-0.4,2.1-1,3-1.8c0.1-0.1,0.3-0.1,0.5-0.1
				l3.8,1.4l2.5-4.3l-3.1-2.6c-0.1-0.1-0.2-0.3-0.2-0.5c0.1-0.6,0.2-1.2,0.2-1.8c0-0.6-0.1-1.2-0.2-1.8c0-0.2,0-0.4,0.2-0.5l3.1-2.6
				l-2.5-4.3l-3.8,1.4c-0.2,0.1-0.4,0-0.5-0.1c-0.9-0.8-1.9-1.3-3-1.8c-0.2-0.1-0.3-0.2-0.3-0.4L17,1h-5l-0.7,4
				c0,0.2-0.2,0.3-0.3,0.4c-1.1,0.4-2.1,1-3.1,1.8C7.8,7.3,7.6,7.3,7.5,7.2L3.6,5.9l-2.5,4.3l3.2,2.6c0.1,0.1,0.2,0.3,0.2,0.5
				c-0.1,0.6-0.2,1.2-0.2,1.8c0,0.6,0.1,1.1,0.2,1.7c0,0.2,0,0.4-0.2,0.5l-3.2,2.6l2.5,4.3l3.8-1.4c0.2-0.1,0.4,0,0.5,0.1
				c0.9,0.8,1.9,1.3,3.1,1.8c0.2,0.1,0.3,0.2,0.3,0.4L12,29z"/>
		</g>
		<g>
			<path class="st0" d="M14.5,21c-3.3,0-6-2.7-6-6s2.7-6,6-6s6,2.7,6,6S17.8,21,14.5,21z M14.5,10c-2.8,0-5,2.2-5,5s2.2,5,5,5
				s5-2.2,5-5S17.3,10,14.5,10z"/>
		</g>
	</g>
</g>
</svg>
