<svg xmlns="http://www.w3.org/2000/svg" viewBox="0 0 19.76 30.63"><defs><style>.cls-1{fill:#9498a7;}</style></defs><title>Sites</title><g id="Layer_2" data-name="Layer 2"><g id="Layer_1-2" data-name="Layer 1"><path class="cls-1" d="M9.89,6.58a3.34,3.34,0,1,0,3.34,3.34A3.35,3.35,0,0,0,9.89,6.58Zm0,5.79a2.45,2.45,0,1,1,2.45-2.45A2.46,2.46,0,0,1,9.89,12.37Z"/><path class="cls-1" d="M13.6,25.41,13,25.26l.46-.47A21.85,21.85,0,0,0,19.76,10V9.88A9.88,9.88,0,0,0,0,9.87,22.12,22.12,0,0,0,6.35,24.79l.45.47-.64.15c-2.1.49-3.36,1.39-3.36,2.41,0,1.4,2.43,2.81,7.08,2.81S17,29.22,17,27.82C17,26.8,15.7,25.9,13.6,25.41ZM9.88,29.74c-3.78,0-6.19-1.14-6.19-1.92,0-.58,1.33-1.4,3.79-1.74l.17,0,.13.12c.67.59,1.33,1.13,2,1.64l.08.06.07-.06c.7-.52,1.36-1,2-1.64l.13-.12.17,0c2.46.34,3.78,1.16,3.78,1.74C16.06,28.6,13.65,29.74,9.88,29.74Zm9-19.74c0,1,0,9.72-8.75,16.57l-.23.18-.23-.18A22.53,22.53,0,0,1,1.94,15.94a18.28,18.28,0,0,1-1-6A9,9,0,0,1,16.23,3.53a8.9,8.9,0,0,1,2.64,6.34Z"/></g></g></svg>
