<?xml version="1.0" encoding="utf-8"?>
<!-- Generator: Adobe Illustrator 22.1.0, SVG Export Plug-In . SVG Version: 6.00 Build 0)  -->
<svg version="1.1" id="Layer_1" xmlns="http://www.w3.org/2000/svg" xmlns:xlink="http://www.w3.org/1999/xlink" x="0px" y="0px"
	 viewBox="0 0 26 26" style="enable-background:new 0 0 26 26;" xml:space="preserve">
<style type="text/css">
	.st0{fill:#9498A7;}
</style>
<title>Stats</title>
<g>
	<path class="st0" d="M25.5,0h-25C0.2,0,0,0.2,0,0.5V17c0,1.1,0.9,2,2,2h10.5v5.2C12.2,24.3,12,24.6,12,25c0,0.6,0.4,1,1,1
		s1-0.4,1-1c0-0.4-0.2-0.7-0.5-0.8V19H24c1.1,0,2-0.9,2-2V0.5C26,0.2,25.8,0,25.5,0z M25,17c0,0.6-0.4,1-1,1H2c-0.6,0-1-0.4-1-1V1
		h24V17z"/>
	<path class="st0" d="M4.5,16h3C7.8,16,8,15.8,8,15.5v-6C8,9.2,7.8,9,7.5,9h-3C4.2,9,4,9.2,4,9.5v6C4,15.8,4.2,16,4.5,16z M5,10h2v5
		H5V10z"/>
	<path class="st0" d="M11.5,16h3c0.3,0,0.5-0.2,0.5-0.5v-9C15,6.2,14.8,6,14.5,6h-3C11.2,6,11,6.2,11,6.5v9C11,15.8,11.2,16,11.5,16
		z M12,7h2v8h-2V7z"/>
	<path class="st0" d="M18.5,16h3c0.3,0,0.5-0.2,0.5-0.5v-12c0-0.1-0.1-0.3-0.1-0.4C21.8,3.1,21.6,3,21.5,3l-2.9,0
		c-0.3,0-0.5,0.2-0.5,0.5l-0.1,12c0,0.1,0.1,0.3,0.1,0.4S18.4,16,18.5,16z M19.1,4L21,4v11h-2L19.1,4z"/>
</g>
</svg>
