<?xml version="1.0" encoding="utf-8"?>
<!-- Generator: Adobe Illustrator 23.0.1, SVG Export Plug-In . SVG Version: 6.00 Build 0)  -->
<svg version="1.1" id="Layer_1" xmlns="http://www.w3.org/2000/svg" xmlns:xlink="http://www.w3.org/1999/xlink" x="0px" y="0px"
	 viewBox="0 0 144 144" style="enable-background:new 0 0 144 144;" xml:space="preserve">
<style type="text/css">
	.st0{fill:#9498A7;}
</style>
<path class="st0" d="M35.6,33.8c-9.5,0-17.3,8-17.3,17.8c0,9.8,7.8,17.8,17.3,17.8s17.3-8,17.3-17.8C52.9,41.8,45.2,33.8,35.6,33.8z
	 M35.6,37.5c7.5,0,13.6,6.3,13.6,14.1s-6.1,14.1-13.6,14.1c-7.5,0-13.6-6.3-13.6-14.1S28.1,37.5,35.6,37.5z"/>
<path class="st0" d="M110.8,34.3c-9.5,0-17.3,7.8-17.3,17.3s7.8,17.3,17.3,17.3c9.5,0,17.3-7.8,17.3-17.3S120.3,34.3,110.8,34.3z
	 M124.4,51.6c0,7.5-6.1,13.6-13.6,13.6c-7.5,0-13.6-6.1-13.6-13.6c0-7.5,6.1-13.6,13.6-13.6C118.3,38,124.4,44.1,124.4,51.6z"/>
<path class="st0" d="M73.4,35.9c-10.3,0-18.6,8.3-18.6,18.6s8.3,18.6,18.6,18.6S92,64.8,92,54.5C92,44.3,83.6,35.9,73.4,35.9z
	 M88.6,54.6c0,8.4-6.8,15.2-15.2,15.2s-15.2-6.8-15.2-15.2S65,39.4,73.4,39.4S88.6,46.2,88.6,54.6z"/>
<path class="st0" d="M141,93.2c0-0.1,0-0.1,0-0.2h-1l1-0.1c0,0,0,0,0,0l0,0c0-4.2,0-8.5-2.5-12.3c-5.7-8.6-22.6-9.9-27.6-10
	c-0.5,0-1,0-1.4,0c0,0-0.1,0-0.1,0c0,0,0,0,0,0c-0.5,0-1,0-1.5,0c-0.1,0-0.2,0-0.2,0c-0.5,0-0.9,0-1.3,0.1c-0.1,0-0.2,0-0.3,0
	c-0.4,0-0.8,0.1-1.2,0.1c-0.1,0-0.3,0-0.4,0c-0.4,0-0.7,0.1-1.1,0.1c-0.2,0-0.4,0.1-0.5,0.1c-0.3,0.1-0.7,0.1-1,0.2
	c-0.2,0-0.4,0.1-0.6,0.1c-0.3,0.1-0.6,0.1-0.9,0.2c-0.2,0.1-0.5,0.1-0.7,0.2c-0.3,0.1-0.5,0.1-0.8,0.2c-0.3,0.1-0.5,0.1-0.8,0.2
	c-0.2,0.1-0.5,0.1-0.7,0.2c-0.3,0.1-0.5,0.2-0.8,0.3c-0.2,0.1-0.4,0.1-0.7,0.2c-0.3,0.1-0.6,0.2-0.8,0.3c-0.2,0.1-0.4,0.1-0.6,0.2
	c-0.3,0.1-0.6,0.2-0.9,0.3c-0.2,0.1-0.4,0.1-0.6,0.2c-0.3,0.1-0.6,0.3-0.9,0.4c-0.2,0.1-0.3,0.1-0.5,0.2c-0.4,0.2-0.7,0.3-1.1,0.5
	c-0.1,0-0.2,0.1-0.3,0.1c-1.5,0.7-2.9,1.4-4.4,2.2c-0.6,0.3-1.2,0.7-1.8,1.2c-4.8-0.8-8.8-1-10.4-1c0,0,0,0,0,0
	c-4.2-0.2-8,0.2-11.9,1c-6.9-6.7-21.4-7.7-25.8-7.9c-0.5,0-1,0-1.5,0c-1.9,0-3.7,0.1-5.4,0.3C28.5,71,28.2,71,28,71
	c-0.3,0-0.5,0.1-0.8,0.1c-0.4,0.1-0.8,0.2-1.3,0.2c-0.1,0-0.2,0-0.3,0.1c-0.4,0.1-0.8,0.2-1.2,0.3c-0.1,0-0.2,0.1-0.4,0.1
	c-0.3,0.1-0.6,0.2-0.9,0.2c-0.2,0.1-0.5,0.1-0.7,0.2c-0.1,0-0.3,0.1-0.4,0.1c-4.3,1.3-8,3.1-11.5,5c-3.7,2-6.2,5.5-7.1,9.5
	c0,0.1,0,0.1-0.1,0.2c0,0.2-0.1,0.4-0.1,0.6c0,0.1-0.1,0.3-0.1,0.4c0,0.2,0,0.4-0.1,0.5c0,0.1,0,0.3,0,0.4c0,0.3,0,0.7,0,1v3.2
	c0,3.1,2.5,5.7,5.7,5.7h26.4c0,0.4-0.1,0.9-0.1,1.3v3.7c0,3.5,2.9,6.4,6.4,6.4h58.7l0.4,0c0.2,0,0.5,0,0.7,0h0.1
	c2.7,0,4.7-0.8,6-2.3c0.8-0.9,1.1-1.9,1.3-2.6c0.1-0.2,0.1-0.4,0.1-0.6v-0.1c0-0.3,0-0.5,0-0.7c0-0.1,0-0.3,0-0.4
	c0-1.6,0-3.2-0.1-4.8h24.6l0.3,0c0.2,0,0.4,0,0.6,0l0.1,0c0.6,0,1.1,0,1.7-0.1c1.6-0.3,2.8-0.9,3.7-1.9c0.3-0.3,0.5-0.6,0.6-1
	c0.2-0.4,0.4-0.9,0.5-1.4c0.1-0.2,0.1-0.4,0.1-0.6v-0.1c0,0,0,0,0,0C141,93.6,141,93.4,141,93.2z M134.3,94.9l-1.7,0
	c-0.3,0-0.6,0-0.8,0l-0.1,0l-23.5,0c-0.5-2.1-1.2-4-2.3-5.6c-2.8-4.3-8.3-7.5-16.3-9.5c1.1-0.6,2.2-1.1,3.3-1.5
	c0.5-0.2,1-0.5,1.6-0.7c0.1,0,0.2-0.1,0.3-0.1c4-1.6,8-2.6,12.7-2.8c0.1,0,0.3,0,0.4,0c0.9,0,1.8-0.1,2.7,0l0.1,0
	c9.7,0.3,21,3,24.4,8.2c1.9,2.8,1.8,6.5,1.8,10.1v0.7c0,0.2-0.1,0.4-0.3,0.6C136.3,94.7,135.5,94.9,134.3,94.9L134.3,94.9z
	 M7.3,94.1C7.1,93.8,7,93.5,7,93.2v-3.1c0-3.9,2-7.4,5.3-9.2c7-3.8,13.4-6.3,21.8-6.3c0.4,0,0.8,0,1.3,0l0.1,0
	c6.8,0.2,15.8,1.7,21.1,5.2c-4,1.3-8.1,3.1-13,5.7c-3.7,2-6.5,5.4-7.8,9.4H8.5C8,94.8,7.5,94.5,7.3,94.1z M41.4,106.3
	c-1.3,0-2.4-1.1-2.4-2.4v-3.7c0-0.8,0.1-1.7,0.2-2.5l0.2-1c0.9-3.3,3.1-6.1,6.1-7.7c6.1-3.3,10.7-5.1,15.4-6.3l1.1-0.3
	c1.8-0.4,3.6-0.7,5.4-0.8c0,0,0.1,0,0.1,0c0.9-0.1,1.7-0.1,2.6-0.1c0.1,0,0.1,0,0.2,0c0.9,0,1.8,0,2.8,0c3.1,0.1,6.5,0.4,9.7,0.9
	l0.5,0.1c0.3,0,0.5,0.1,0.8,0.1c9.2,1.7,15.7,4.8,18.3,8.8c0.9,1.4,1.5,3.1,1.8,5.1l0.1,1c0,0,0,0.1,0,0.1c0.2,1.9,0.2,3.8,0.2,6
	v0.8c-0.1,0.4-0.2,0.7-0.4,0.9c-0.1,0.1-0.3,0.3-0.5,0.4c-0.6,0.3-1.4,0.5-2.6,0.5l-2,0c-0.4,0-0.7,0-0.9,0l-0.2,0l-31,0L41.4,106.3
	z"/>
</svg>
